# xmcd
#
# Track frame offsets: 
#        150
#        10162
#        25075
#        45402
#        66797
#        91767
#        114480
#        138015
#        158712
#        189290
#        212220
#
# Disc length: 3113 seconds
#
# Revision: 6
# Processed by: cddbd v1.5.2PL0 Copyright (c) Steve Scherf et al.
# Submitted via: ExactAudioCopyFreeDBPlugin 1.0
#
DISCID=7f0c270b
DTITLE=UGK - Super Tight
DYEAR=1994
DGENRE=Rap
TTITLE0=Return
TTITLE1=Underground
TTITLE2=It's Supposed To Bubble
TTITLE3=I Left It Wet For You
TTITLE4=Feds In Town Feat. 3-2
TTITLE5=Pocket Full Of Stones Part 2
TTITLE6=Front, Back and Side To Side
TTITLE7=Protect and Serve Feat. Smoke D
TTITLE8=Stoned Junkee
TTITLE9=Pussy Got Me Dizzy
TTITLE10=Three Sixteens
EXTD=
EXTT0=
EXTT1=
EXTT2=
EXTT3=
EXTT4=
EXTT5=
EXTT6=
EXTT7=
EXTT8=
EXTT9=
EXTT10=
PLAYORDER=
